<svg width="1280" height="720" viewBox="0 0 1280 720" fill="none" xmlns="http://www.w3.org/2000/svg">
  <rect width="1280" height="720" fill="#0F0F0F"/>
  <rect x="0" y="0" width="240" height="720" fill="#1A1A1A" stroke="#FFFFFF" stroke-opacity="0.05" stroke-width="1"/>
  <rect x="20" y="20" width="200" height="40" rx="8" fill="#8B5CF6" opacity="0.15"/>
  <text x="40" y="46" font-family="monospace" font-size="16" fill="#8B5CF6" font-weight="bold">Admin Panel</text>
  <rect x="20" y="80" width="200" height="36" rx="6" fill="#8B5CF6" opacity="0.1"/>
  <text x="40" y="103" font-family="monospace" font-size="12" fill="#8B5CF6">Dashboard</text>
  <rect x="20" y="120" width="200" height="36" rx="6" fill="#FFFFFF" opacity="0.02"/>
  <text x="40" y="143" font-family="monospace" font-size="12" fill="#FFFFFF" opacity="0.5">Products</text>
  <rect x="20" y="160" width="200" height="36" rx="6" fill="#FFFFFF" opacity="0.02"/>
  <text x="40" y="183" font-family="monospace" font-size="12" fill="#FFFFFF" opacity="0.5">Orders</text>
  <rect x="20" y="200" width="200" height="36" rx="6" fill="#FFFFFF" opacity="0.02"/>
  <text x="40" y="223" font-family="monospace" font-size="12" fill="#FFFFFF" opacity="0.5">Users</text>
  <rect x="20" y="240" width="200" height="36" rx="6" fill="#FFFFFF" opacity="0.02"/>
  <text x="40" y="263" font-family="monospace" font-size="12" fill="#FFFFFF" opacity="0.5">Categories</text>
  <rect x="260" y="20" width="1000" height="680" rx="12" fill="none"/>
  <text x="280" y="55" font-family="monospace" font-size="20" fill="#FFFFFF" font-weight="bold">Dashboard Overview</text>
  <rect x="280" y="75" width="220" height="100" rx="10" fill="#1A1A1A" stroke="#8B5CF6" stroke-opacity="0.3" stroke-width="1"/>
  <text x="300" y="100" font-family="monospace" font-size="11" fill="#FFFFFF" opacity="0.4">Total Revenue</text>
  <text x="300" y="140" font-family="monospace" font-size="24" fill="#8B5CF6" font-weight="bold">$24,500</text>
  <rect x="520" y="75" width="220" height="100" rx="10" fill="#1A1A1A" stroke="#FFFFFF" stroke-opacity="0.05" stroke-width="1"/>
  <text x="540" y="100" font-family="monospace" font-size="11" fill="#FFFFFF" opacity="0.4">Orders</text>
  <text x="540" y="140" font-family="monospace" font-size="24" fill="#FFFFFF" font-weight="bold">156</text>
  <rect x="760" y="75" width="220" height="100" rx="10" fill="#1A1A1A" stroke="#FFFFFF" stroke-opacity="0.05" stroke-width="1"/>
  <text x="780" y="100" font-family="monospace" font-size="11" fill="#FFFFFF" opacity="0.4">Products</text>
  <text x="780" y="140" font-family="monospace" font-size="24" fill="#FFFFFF" font-weight="bold">48</text>
  <rect x="280" y="195" width="700" height="300" rx="10" fill="#1A1A1A" stroke="#FFFFFF" stroke-opacity="0.05" stroke-width="1"/>
  <text x="300" y="225" font-family="monospace" font-size="14" fill="#FFFFFF" opacity="0.6" font-weight="bold">Recent Orders</text>
  <rect x="300" y="240" width="660" height="30" fill="#FFFFFF" opacity="0.02"/>
  <text x="310" y="260" font-family="monospace" font-size="11" fill="#8B5CF6">#1234</text>
  <text x="380" y="260" font-family="monospace" font-size="11" fill="#FFFFFF" opacity="0.5">John Doe</text>
  <text x="520" y="260" font-family="monospace" font-size="11" fill="#FFFFFF" opacity="0.3">$129.99</text>
  <rect x="650" y="248" width="60" height="16" rx="4" fill="#22C55E" opacity="0.15"/>
  <text x="660" y="260" font-family="monospace" font-size="9" fill="#22C55E">Delivered</text>
  <rect x="300" y="275" width="660" height="30" fill="#FFFFFF" opacity="0.02"/>
  <text x="310" y="295" font-family="monospace" font-size="11" fill="#8B5CF6">#1235</text>
  <text x="380" y="295" font-family="monospace" font-size="11" fill="#FFFFFF" opacity="0.5">Jane Smith</text>
  <text x="520" y="295" font-family="monospace" font-size="11" fill="#FFFFFF" opacity="0.3">$79.99</text>
  <rect x="650" y="283" width="60" height="16" rx="4" fill="#F59E0B" opacity="0.15"/>
  <text x="655" y="295" font-family="monospace" font-size="9" fill="#F59E0B">Pending</text>
  <rect x="300" y="310" width="660" height="30" fill="#FFFFFF" opacity="0.02"/>
  <text x="310" y="330" font-family="monospace" font-size="11" fill="#8B5CF6">#1236</text>
  <text x="380" y="330" font-family="monospace" font-size="11" fill="#FFFFFF" opacity="0.5">Bob Wilson</text>
  <text x="520" y="330" font-family="monospace" font-size="11" fill="#FFFFFF" opacity="0.3">$199.99</text>
  <rect x="650" y="318" width="60" height="16" rx="4" fill="#22C55E" opacity="0.15"/>
  <text x="660" y="330" font-family="monospace" font-size="9" fill="#22C55E">Delivered</text>
  <rect x="280" y="515" width="460" height="160" rx="10" fill="#1A1A1A" stroke="#FFFFFF" stroke-opacity="0.05" stroke-width="1"/>
  <text x="300" y="545" font-family="monospace" font-size="14" fill="#FFFFFF" opacity="0.6" font-weight="bold">Sales Chart</text>
  <polyline points="320,650 400,620 480,630 560,580 640,600 720,550" stroke="#8B5CF6" stroke-width="2" fill="none"/>
  <polyline points="320,650 400,620 480,630 560,580 640,600 720,550" fill="url(#grad)" opacity="0.1"/>
  <defs><linearGradient id="grad" x1="0" y1="0" x2="0" y2="1"><stop offset="0%" stop-color="#8B5CF6"/><stop offset="100%" stop-color="#8B5CF6" stop-opacity="0"/></linearGradient></defs>
</svg>