<svg width="1280" height="720" viewBox="0 0 1280 720" fill="none" xmlns="http://www.w3.org/2000/svg">
  <rect width="1280" height="720" fill="#0F0F0F"/>
  <rect x="0" y="0" width="1280" height="64" fill="#1A1A1A"/>
  <rect x="20" y="16" width="140" height="32" rx="6" fill="#8B5CF6" opacity="0.15"/>
  <text x="35" y="37" font-family="monospace" font-size="16" fill="#8B5CF6" font-weight="bold">DENJO-C</text>
  <rect x="400" y="16" height="32" rx="16" fill="#FFFFFF" opacity="0.05"/>
  <rect x="340" y="16" width="300" height="32" rx="16" stroke="#FFFFFF" stroke-opacity="0.1" stroke-width="1" fill="none"/>
  <text x="360" y="36" font-family="monospace" font-size="12" fill="#FFFFFF" opacity="0.4">Search products...</text>
  <rect x="1050" y="16" width="80" height="32" rx="8" fill="#8B5CF6"/>
  <text x="1065" y="36" font-family="monospace" font-size="12" fill="#FFFFFF">Cart (3)</text>
  <rect x="1140" y="16" width="80" height="32" rx="8" fill="#FFFFFF" opacity="0.05"/>
  <text x="1155" y="36" font-family="monospace" font-size="12" fill="#FFFFFF" opacity="0.6">Login</text>
  <rect x="40" y="85" width="1200" height="36" rx="8" fill="#FFFFFF" opacity="0.03"/>
  <rect x="55" y="93" width="60" height="20" rx="4" fill="#8B5CF6" opacity="0.2"/>
  <text x="65" y="107" font-family="monospace" font-size="10" fill="#8B5CF6">All</text>
  <rect x="125" y="93" width="80" height="20" rx="4" fill="#FFFFFF" opacity="0.05"/>
  <text x="140" y="107" font-family="monospace" font-size="10" fill="#FFFFFF" opacity="0.5">Electronics</text>
  <rect x="215" y="93" width="70" height="20" rx="4" fill="#FFFFFF" opacity="0.05"/>
  <text x="228" y="107" font-family="monospace" font-size="10" fill="#FFFFFF" opacity="0.5">Fashion</text>
  <rect x="295" y="93" width="70" height="20" rx="4" fill="#FFFFFF" opacity="0.05"/>
  <text x="308" y="107" font-family="monospace" font-size="10" fill="#FFFFFF" opacity="0.5">Sports</text>
  <rect x="375" y="93" width="80" height="20" rx="4" fill="#FFFFFF" opacity="0.05"/>
  <text x="390" y="107" font-family="monospace" font-size="10" fill="#FFFFFF" opacity="0.5">Home &amp; Garden</text>
  <rect x="40" y="140" width="280" height="340" rx="12" fill="#1A1A1A" stroke="#FFFFFF" stroke-opacity="0.08" stroke-width="1"/>
  <rect x="60" y="160" width="240" height="180" rx="8" fill="#8B5CF6" opacity="0.1"/>
  <text x="170" y="255" font-family="monospace" font-size="11" fill="#8B5CF6" text-anchor="middle">Product Image</text>
  <text x="60" y="365" font-family="monospace" font-size="14" fill="#FFFFFF" font-weight="bold">Wireless Headphones</text>
  <text x="60" y="385" font-family="monospace" font-size="12" fill="#8B5CF6">$79.99</text>
  <text x="60" y="405" font-family="monospace" font-size="10" fill="#FFFFFF" opacity="0.3">Electronics</text>
  <rect x="60" y="425" width="100" height="32" rx="6" fill="#8B5CF6"/>
  <text x="80" y="445" font-family="monospace" font-size="11" fill="#FFFFFF">Add to Cart</text>
  <rect x="340" y="140" width="280" height="340" rx="12" fill="#1A1A1A" stroke="#FFFFFF" stroke-opacity="0.08" stroke-width="1"/>
  <rect x="360" y="160" width="240" height="180" rx="8" fill="#8B5CF6" opacity="0.15"/>
  <text x="470" y="255" font-family="monospace" font-size="11" fill="#8B5CF6" text-anchor="middle">Product Image</text>
  <text x="360" y="365" font-family="monospace" font-size="14" fill="#FFFFFF" font-weight="bold">Running Shoes</text>
  <text x="360" y="385" font-family="monospace" font-size="12" fill="#8B5CF6">$129.99</text>
  <text x="360" y="405" font-family="monospace" font-size="10" fill="#FFFFFF" opacity="0.3">Sports</text>
  <rect x="360" y="425" width="100" height="32" rx="6" fill="#8B5CF6"/>
  <text x="380" y="445" font-family="monospace" font-size="11" fill="#FFFFFF">Add to Cart</text>
  <rect x="640" y="140" width="280" height="340" rx="12" fill="#1A1A1A" stroke="#FFFFFF" stroke-opacity="0.08" stroke-width="1"/>
  <rect x="660" y="160" width="240" height="180" rx="8" fill="#8B5CF6" opacity="0.12"/>
  <text x="770" y="255" font-family="monospace" font-size="11" fill="#8B5CF6" text-anchor="middle">Product Image</text>
  <text x="660" y="365" font-family="monospace" font-size="14" fill="#FFFFFF" font-weight="bold">Smart Watch</text>
  <text x="660" y="385" font-family="monospace" font-size="12" fill="#8B5CF6">$199.99</text>
  <text x="660" y="405" font-family="monospace" font-size="10" fill="#FFFFFF" opacity="0.3">Electronics</text>
  <rect x="660" y="425" width="100" height="32" rx="6" fill="#8B5CF6"/>
  <text x="680" y="445" font-family="monospace" font-size="11" fill="#FFFFFF">Add to Cart</text>
  <rect x="940" y="140" width="280" height="340" rx="12" fill="#1A1A1A" stroke="#FFFFFF" stroke-opacity="0.08" stroke-width="1"/>
  <rect x="960" y="160" width="240" height="180" rx="8" fill="#8B5CF6" opacity="0.1"/>
  <text x="1070" y="255" font-family="monospace" font-size="11" fill="#8B5CF6" text-anchor="middle">Product Image</text>
  <text x="960" y="365" font-family="monospace" font-size="14" fill="#FFFFFF" font-weight="bold">Backpack</text>
  <text x="960" y="385" font-family="monospace" font-size="12" fill="#8B5CF6">$49.99</text>
  <text x="960" y="405" font-family="monospace" font-size="10" fill="#FFFFFF" opacity="0.3">Fashion</text>
  <rect x="960" y="425" width="100" height="32" rx="6" fill="#8B5CF6"/>
  <text x="980" y="445" font-family="monospace" font-size="11" fill="#FFFFFF">Add to Cart</text>
</svg>