<svg width="1280" height="720" viewBox="0 0 1280 720" fill="none" xmlns="http://www.w3.org/2000/svg">
  <rect width="1280" height="720" fill="#0F0F0F"/>
  <rect x="0" y="0" width="1280" height="60" fill="#1A1A1A"/>
  <rect x="20" y="14" width="120" height="32" rx="6" fill="#06B6D4" opacity="0.15"/>
  <text x="35" y="35" font-family="monospace" font-size="14" fill="#06B6D4" font-weight="bold">EduCom.</text>
  <rect x="160" y="14" width="100" height="32" rx="6" fill="#FFFFFF" opacity="0.03"/>
  <text x="178" y="35" font-family="monospace" font-size="12" fill="#FFFFFF" opacity="0.4">Dashboard</text>
  <rect x="270" y="14" width="100" height="32" rx="6" fill="#FFFFFF" opacity="0.05"/>
  <text x="290" y="35" font-family="monospace" font-size="12" fill="#FFFFFF" opacity="0.6">Students</text>
  <rect x="380" y="14" width="100" height="32" rx="6" fill="#FFFFFF" opacity="0.03"/>
  <text x="400" y="35" font-family="monospace" font-size="12" fill="#FFFFFF" opacity="0.4">Courses</text>
  <rect x="490" y="14" width="100" height="32" rx="6" fill="#FFFFFF" opacity="0.03"/>
  <text x="510" y="35" font-family="monospace" font-size="12" fill="#FFFFFF" opacity="0.4">Attendance</text>
  <rect x="40" y="80" width="1200" height="50" rx="10" fill="#1A1A1A" stroke="#FFFFFF" stroke-opacity="0.05" stroke-width="1"/>
  <text x="60" y="110" font-family="monospace" font-size="16" fill="#FFFFFF" font-weight="bold">Student Management</text>
  <rect x="1060" y="88" width="160" height="34" rx="6" fill="#06B6D4"/>
  <text x="1085" y="110" font-family="monospace" font-size="12" fill="#FFFFFF" font-weight="bold">+ Add Student</text>
  <rect x="40" y="145" width="1200" height="35" fill="#FFFFFF" opacity="0.02"/>
  <text x="60" y="167" font-family="monospace" font-size="11" fill="#06B6D4" font-weight="bold">#</text>
  <text x="120" y="167" font-family="monospace" font-size="11" fill="#06B6D4" font-weight="bold">Name</text>
  <text x="320" y="167" font-family="monospace" font-size="11" fill="#06B6D4" font-weight="bold">Course</text>
  <text x="520" y="167" font-family="monospace" font-size="11" fill="#06B6D4" font-weight="bold">Year</text>
  <text x="660" y="167" font-family="monospace" font-size="11" fill="#06B6D4" font-weight="bold">Attendance</text>
  <text x="820" y="167" font-family="monospace" font-size="11" fill="#06B6D4" font-weight="bold">Status</text>
  <rect x="40" y="180" width="1200" height="50" fill="#FFFFFF" opacity="0.02"/>
  <text x="60" y="210" font-family="monospace" font-size="11" fill="#FFFFFF" opacity="0.5">001</text>
  <text x="120" y="210" font-family="monospace" font-size="12" fill="#FFFFFF" opacity="0.7">Alice Johnson</text>
  <text x="320" y="210" font-family="monospace" font-size="11" fill="#FFFFFF" opacity="0.4">Computer Science</text>
  <text x="520" y="210" font-family="monospace" font-size="11" fill="#FFFFFF" opacity="0.4">3rd Year</text>
  <rect x="660" y="196" width="100" height="16" rx="8" fill="#06B6D4" opacity="0.15"/>
  <text x="675" y="208" font-family="monospace" font-size="10" fill="#06B6D4">92%</text>
  <rect x="810" y="196" width="60" height="16" rx="4" fill="#22C55E" opacity="0.15"/>
  <text x="820" y="208" font-family="monospace" font-size="10" fill="#22C55E">Active</text>
  <rect x="40" y="230" width="1200" height="50" fill="#FFFFFF" opacity="0.02"/>
  <text x="60" y="260" font-family="monospace" font-size="11" fill="#FFFFFF" opacity="0.5">002</text>
  <text x="120" y="260" font-family="monospace" font-size="12" fill="#FFFFFF" opacity="0.7">Bob Smith</text>
  <text x="320" y="260" font-family="monospace" font-size="11" fill="#FFFFFF" opacity="0.4">Mathematics</text>
  <text x="520" y="260" font-family="monospace" font-size="11" fill="#FFFFFF" opacity="0.4">2nd Year</text>
  <rect x="660" y="246" width="100" height="16" rx="8" fill="#06B6D4" opacity="0.15"/>
  <text x="675" y="258" font-family="monospace" font-size="10" fill="#06B6D4">78%</text>
  <rect x="810" y="246" width="60" height="16" rx="4" fill="#22C55E" opacity="0.15"/>
  <text x="820" y="258" font-family="monospace" font-size="10" fill="#22C55E">Active</text>
  <rect x="40" y="280" width="1200" height="50" fill="#FFFFFF" opacity="0.02"/>
  <text x="60" y="310" font-family="monospace" font-size="11" fill="#FFFFFF" opacity="0.5">003</text>
  <text x="120" y="310" font-family="monospace" font-size="12" fill="#FFFFFF" opacity="0.7">Carol Davis</text>
  <text x="320" y="310" font-family="monospace" font-size="11" fill="#FFFFFF" opacity="0.4">Physics</text>
  <text x="520" y="310" font-family="monospace" font-size="11" fill="#FFFFFF" opacity="0.4">1st Year</text>
  <rect x="660" y="296" width="100" height="16" rx="8" fill="#06B6D4" opacity="0.15"/>
  <text x="675" y="308" font-family="monospace" font-size="10" fill="#06B6D4">95%</text>
  <rect x="810" y="296" width="60" height="16" rx="4" fill="#22C55E" opacity="0.15"/>
  <text x="820" y="308" font-family="monospace" font-size="10" fill="#22C55E">Active</text>
  <rect x="40" y="350" width="1200" height="140" rx="12" fill="#1A1A1A" stroke="#FFFFFF" stroke-opacity="0.05" stroke-width="1"/>
  <text x="60" y="380" font-family="monospace" font-size="14" fill="#FFFFFF" opacity="0.6" font-weight="bold">Student Details — Alice Johnson</text>
  <text x="60" y="405" font-family="monospace" font-size="11" fill="#FFFFFF" opacity="0.5">Email: alice.j@example.com</text>
  <text x="60" y="425" font-family="monospace" font-size="11" fill="#FFFFFF" opacity="0.5">Phone: +91 98765 43210</text>
  <text x="60" y="445" font-family="monospace" font-size="11" fill="#FFFFFF" opacity="0.5">Address: Kozhikode, Kerala</text>
  <text x="400" y="405" font-family="monospace" font-size="11" fill="#FFFFFF" opacity="0.5">Enrolled: Aug 2024</text>
  <text x="400" y="425" font-family="monospace" font-size="11" fill="#FFFFFF" opacity="0.5">GPA: 3.8/4.0</text>
  <rect x="750" y="395" width="120" height="28" rx="6" fill="#06B6D4"/>
  <text x="770" y="414" font-family="monospace" font-size="11" fill="#FFFFFF">Edit Profile</text>
  <rect x="880" y="395" width="120" height="28" rx="6" fill="#FFFFFF" opacity="0.05"/>
  <text x="900" y="414" font-family="monospace" font-size="11" fill="#FFFFFF" opacity="0.6">View Grades</text>
</svg>