<svg width="1280" height="720" viewBox="0 0 1280 720" fill="none" xmlns="http://www.w3.org/2000/svg">
  <rect width="1280" height="720" fill="#0F0F0F"/>
  <rect x="0" y="0" width="1280" height="60" fill="#1A1A1A"/>
  <rect x="20" y="14" width="120" height="32" rx="6" fill="#06B6D4" opacity="0.15"/>
  <text x="35" y="35" font-family="monospace" font-size="14" fill="#06B6D4" font-weight="bold">EduCom.</text>
  <rect x="160" y="14" width="100" height="32" rx="6" fill="#FFFFFF" opacity="0.05"/>
  <text x="178" y="35" font-family="monospace" font-size="12" fill="#FFFFFF" opacity="0.6">Dashboard</text>
  <rect x="270" y="14" width="100" height="32" rx="6" fill="#FFFFFF" opacity="0.03"/>
  <text x="290" y="35" font-family="monospace" font-size="12" fill="#FFFFFF" opacity="0.4">Students</text>
  <rect x="380" y="14" width="100" height="32" rx="6" fill="#FFFFFF" opacity="0.03"/>
  <text x="400" y="35" font-family="monospace" font-size="12" fill="#FFFFFF" opacity="0.4">Courses</text>
  <rect x="490" y="14" width="100" height="32" rx="6" fill="#FFFFFF" opacity="0.03"/>
  <text x="510" y="35" font-family="monospace" font-size="12" fill="#FFFFFF" opacity="0.4">Attendance</text>
  <rect x="1120" y="14" width="140" height="32" rx="6" fill="#FFFFFF" opacity="0.05"/>
  <text x="1140" y="35" font-family="monospace" font-size="12" fill="#FFFFFF" opacity="0.6">Admin</text>
  <rect x="40" y="80" width="380" height="140" rx="12" fill="#1A1A1A" stroke="#06B6D4" stroke-opacity="0.3" stroke-width="1"/>
  <text x="60" y="110" font-family="monospace" font-size="12" fill="#FFFFFF" opacity="0.4">Total Students</text>
  <text x="60" y="155" font-family="monospace" font-size="36" fill="#06B6D4" font-weight="bold">1,247</text>
  <text x="60" y="180" font-family="monospace" font-size="10" fill="#22C55E">+12% this semester</text>
  <rect x="440" y="80" width="380" height="140" rx="12" fill="#1A1A1A" stroke="#FFFFFF" stroke-opacity="0.05" stroke-width="1"/>
  <text x="460" y="110" font-family="monospace" font-size="12" fill="#FFFFFF" opacity="0.4">Active Courses</text>
  <text x="460" y="155" font-family="monospace" font-size="36" fill="#FFFFFF" font-weight="bold">24</text>
  <text x="460" y="180" font-family="monospace" font-size="10" fill="#06B6D4">8 new this year</text>
  <rect x="840" y="80" width="380" height="140" rx="12" fill="#1A1A1A" stroke="#FFFFFF" stroke-opacity="0.05" stroke-width="1"/>
  <text x="860" y="110" font-family="monospace" font-size="12" fill="#FFFFFF" opacity="0.4">Faculty Members</text>
  <text x="860" y="155" font-family="monospace" font-size="36" fill="#FFFFFF" font-weight="bold">36</text>
  <text x="860" y="180" font-family="monospace" font-size="10" fill="#FFFFFF" opacity="0.3">Across 6 departments</text>
  <rect x="40" y="240" width="580" height="220" rx="12" fill="#1A1A1A" stroke="#FFFFFF" stroke-opacity="0.05" stroke-width="1"/>
  <text x="60" y="270" font-family="monospace" font-size="14" fill="#FFFFFF" opacity="0.6" font-weight="bold">Attendance Overview</text>
  <rect x="60" y="285" width="540" height="24" rx="4" fill="#FFFFFF" opacity="0.03"/>
  <text x="75" y="302" font-family="monospace" font-size="11" fill="#FFFFFF" opacity="0.5">Computer Science</text>
  <rect x="240" y="289" width="200" height="16" rx="8" fill="#06B6D4" opacity="0.2"/>
  <rect x="240" y="289" width="170" height="16" rx="8" fill="#06B6D4"/>
  <text x="455" y="302" font-family="monospace" font-size="11" fill="#06B6D4">85%</text>
  <rect x="60" y="315" width="540" height="24" rx="4" fill="#FFFFFF" opacity="0.03"/>
  <text x="75" y="332" font-family="monospace" font-size="11" fill="#FFFFFF" opacity="0.5">Mathematics</text>
  <rect x="240" y="319" width="200" height="16" rx="8" fill="#06B6D4" opacity="0.2"/>
  <rect x="240" y="319" width="150" height="16" rx="8" fill="#06B6D4"/>
  <text x="455" y="332" font-family="monospace" font-size="11" fill="#06B6D4">75%</text>
  <rect x="60" y="345" width="540" height="24" rx="4" fill="#FFFFFF" opacity="0.03"/>
  <text x="75" y="362" font-family="monospace" font-size="11" fill="#FFFFFF" opacity="0.5">Physics</text>
  <rect x="240" y="349" width="200" height="16" rx="8" fill="#06B6D4" opacity="0.2"/>
  <rect x="240" y="349" width="180" height="16" rx="8" fill="#06B6D4"/>
  <text x="455" y="362" font-family="monospace" font-size="11" fill="#06B6D4">92%</text>
  <rect x="40" y="480" width="1180" height="200" rx="12" fill="#1A1A1A" stroke="#FFFFFF" stroke-opacity="0.05" stroke-width="1"/>
  <text x="60" y="510" font-family="monospace" font-size="14" fill="#FFFFFF" opacity="0.6" font-weight="bold">Recent Students</text>
  <rect x="60" y="525" width="1140" height="28" fill="#FFFFFF" opacity="0.02"/>
  <text x="75" y="544" font-family="monospace" font-size="11" fill="#06B6D4">1</text>
  <text x="110" y="544" font-family="monospace" font-size="11" fill="#FFFFFF" opacity="0.6">Alice Johnson</text>
  <text x="300" y="544" font-family="monospace" font-size="11" fill="#FFFFFF" opacity="0.3">Computer Science</text>
  <text x="550" y="544" font-family="monospace" font-size="11" fill="#FFFFFF" opacity="0.3">3rd Year</text>
  <text x="700" y="544" font-family="monospace" font-size="11" fill="#22C55E">Active</text>
  <rect x="60" y="558" width="1140" height="28" fill="#FFFFFF" opacity="0.02"/>
  <text x="75" y="577" font-family="monospace" font-size="11" fill="#06B6D4">2</text>
  <text x="110" y="577" font-family="monospace" font-size="11" fill="#FFFFFF" opacity="0.6">Bob Smith</text>
  <text x="300" y="577" font-family="monospace" font-size="11" fill="#FFFFFF" opacity="0.3">Mathematics</text>
  <text x="550" y="577" font-family="monospace" font-size="11" fill="#FFFFFF" opacity="0.3">2nd Year</text>
  <text x="700" y="577" font-family="monospace" font-size="11" fill="#22C55E">Active</text>
</svg>